<svg width="200" height="80" viewBox="0 0 200 80" xmlns="http://www.w3.org/2000/svg">
  <defs>
    <linearGradient id="shieldGradient" x1="0%" y1="0%" x2="100%" y2="100%">
      <stop offset="0%" stop-color="#263238"/>
      <stop offset="50%" stop-color="#37474F"/>
      <stop offset="100%" stop-color="#455A64"/>
    </linearGradient>
    <linearGradient id="thunderBolt" x1="0%" y1="0%" x2="100%" y2="100%">
      <stop offset="0%" stop-color="#FFEB3B"/>
      <stop offset="50%" stop-color="#FFC107"/>
      <stop offset="100%" stop-color="#FF8F00"/>
    </linearGradient>
    <radialGradient id="innerGlow" cx="50%" cy="30%" r="70%">
      <stop offset="0%" stop-color="#4FC3F7" stop-opacity="0.3"/>
      <stop offset="100%" stop-color="#2196F3" stop-opacity="0"/>
    </radialGradient>
  </defs>

  <!-- 盾牌背景 - 向左移动 -->
  <path d="M5 15 Q20 10 20 10 Q20 10 35 15 L35 45 Q20 65 20 65 Q20 65 5 45 Z"
        fill="url(#shieldGradient)"
        stroke="#1A237E"
        stroke-width="2"/>

  <!-- 内发光效果 - 向左移动 -->
  <path d="M7 17 Q20 12 20 12 Q20 12 33 17 L33 43 Q20 61 20 61 Q20 61 7 43 Z"
        fill="url(#innerGlow)"/>

  <!-- 闪电标志 - 向左移动 -->
  <path d="M15 22 L22 22 L19 32 L25 32 L16 50 L19 40 L15 40 Z"
        fill="url(#thunderBolt)"
        stroke="#FF6F00"
        stroke-width="1"/>

  <!-- 鱼的轮廓 - 向左移动 -->
  <path d="M28 35 Q32 33 36 35 Q38 37 36 39 Q32 41 28 39 Q26 37 28 35"
        fill="#4FC3F7"
        stroke="#2196F3"
        stroke-width="1"/>
  <circle cx="30" cy="37" r="1" fill="#1565C0"/>

  <!-- 文字部分 - 左对齐，位置向左移动 -->
  <text x="45" y="25"
        font-family="'Microsoft YaHei', Arial, sans-serif"
        font-size="20"
        font-weight="bold"
        fill="#FFD54F">雷霆路亚</text>

  <text x="45" y="42"
        font-family="Arial, sans-serif"
        font-size="11"
        font-weight="600"
        fill="#81C784">THUNDER LURE CLUB</text>

  <text x="45" y="57"
        font-family="Arial, sans-serif"
        font-size="9"
        fill="#90A4AE">专业路亚钓鱼俱乐部</text>
</svg>